<svg xmlns="http://www.w3.org/2000/svg" width="900" height="500" viewBox="0 0 900 500"><rect width="900" height="500" fill="#efece4"/><path d="M0 338h260V230h140V122h204" fill="none" stroke="#c7c2b4" stroke-width="2"/><rect x="272" y="280" width="72" height="72" fill="#db7150" /><rect x="368" y="210" width="72" height="142" fill="#dfb45d" /><rect x="464" y="140" width="72" height="212" fill="#3049d9" /><path d="M592 90v272" stroke="#242424" stroke-width="5"/><rect x="594" y="90" width="16" height="16" fill="#242424" /><rect x="610" y="90" width="16" height="16" fill="#fdfbf5" /><rect x="626" y="90" width="16" height="16" fill="#242424" /><rect x="642" y="90" width="16" height="16" fill="#fdfbf5" /><rect x="658" y="90" width="16" height="16" fill="#242424" /><rect x="674" y="90" width="16" height="16" fill="#fdfbf5" /><rect x="594" y="106" width="16" height="16" fill="#fdfbf5" /><rect x="610" y="106" width="16" height="16" fill="#242424" /><rect x="626" y="106" width="16" height="16" fill="#fdfbf5" /><rect x="642" y="106" width="16" height="16" fill="#242424" /><rect x="658" y="106" width="16" height="16" fill="#fdfbf5" /><rect x="674" y="106" width="16" height="16" fill="#242424" /><rect x="594" y="122" width="16" height="16" fill="#242424" /><rect x="610" y="122" width="16" height="16" fill="#fdfbf5" /><rect x="626" y="122" width="16" height="16" fill="#242424" /><rect x="642" y="122" width="16" height="16" fill="#fdfbf5" /><rect x="658" y="122" width="16" height="16" fill="#242424" /><rect x="674" y="122" width="16" height="16" fill="#fdfbf5" /><rect x="594" y="138" width="16" height="16" fill="#fdfbf5" /><rect x="610" y="138" width="16" height="16" fill="#242424" /><rect x="626" y="138" width="16" height="16" fill="#fdfbf5" /><rect x="642" y="138" width="16" height="16" fill="#242424" /><rect x="658" y="138" width="16" height="16" fill="#fdfbf5" /><rect x="674" y="138" width="16" height="16" fill="#242424" /><path d="M224 378h480" stroke="#b3ad9d" stroke-width="2"/></svg>
